<svg width="97" height="67" viewBox="0 0 97 67" fill="none" xmlns="http://www.w3.org/2000/svg">
<path fill-rule="evenodd" clip-rule="evenodd" d="M31.8198 8.53553L28.2843 5L15.9099 17.3744L3.53553 5L0 8.53554L12.3744 20.9099L0 33.2843L3.53553 36.8198L15.9099 24.4454L28.2843 36.8198L31.8198 33.2843L19.4454 20.9099L31.8198 8.53553Z" fill="white"/>
<path d="M40 0H42.5L45 20L42.5 40H40L38 20L40 0Z" fill="white"/>
<circle cx="70" cy="20" r="17.5" stroke="#BF9B4F" stroke-width="5"/>
<path d="M0.990234 56V47.4688H3.39844C4.14062 47.4688 4.79688 47.6328 5.36719 47.9609C5.9375 48.2891 6.37695 48.7559 6.68555 49.3613C6.99805 49.9668 7.15625 50.6621 7.16016 51.4473V51.9922C7.16016 52.7969 7.00391 53.502 6.69141 54.1074C6.38281 54.7129 5.93945 55.1777 5.36133 55.502C4.78711 55.8262 4.11719 55.9922 3.35156 56H0.990234ZM2.11523 48.3945V55.0801H3.29883C4.16602 55.0801 4.83984 54.8105 5.32031 54.2715C5.80469 53.7324 6.04688 52.9648 6.04688 51.9688V51.4707C6.04688 50.502 5.81836 49.75 5.36133 49.2148C4.9082 48.6758 4.26367 48.4023 3.42773 48.3945H2.11523ZM13.6875 52.0566H9.99023V55.0801H14.2852V56H8.86523V47.4688H14.2266V48.3945H9.99023V51.1367H13.6875V52.0566ZM18.1992 52.1973C17.2344 51.9199 16.5312 51.5801 16.0898 51.1777C15.6523 50.7715 15.4336 50.2715 15.4336 49.6777C15.4336 49.0059 15.7012 48.4512 16.2363 48.0137C16.7754 47.5723 17.4746 47.3516 18.334 47.3516C18.9199 47.3516 19.4414 47.4648 19.8984 47.6914C20.3594 47.918 20.7148 48.2305 20.9648 48.6289C21.2188 49.0273 21.3457 49.4629 21.3457 49.9355H20.2148C20.2148 49.4199 20.0508 49.0156 19.7227 48.7227C19.3945 48.4258 18.9316 48.2773 18.334 48.2773C17.7793 48.2773 17.3457 48.4004 17.0332 48.6465C16.7246 48.8887 16.5703 49.2266 16.5703 49.6602C16.5703 50.0078 16.7168 50.3027 17.0098 50.5449C17.3066 50.7832 17.8086 51.002 18.5156 51.2012C19.2266 51.4004 19.7812 51.6211 20.1797 51.8633C20.582 52.1016 20.8789 52.3809 21.0703 52.7012C21.2656 53.0215 21.3633 53.3984 21.3633 53.832C21.3633 54.5234 21.0938 55.0781 20.5547 55.4961C20.0156 55.9102 19.2949 56.1172 18.3926 56.1172C17.8066 56.1172 17.2598 56.0059 16.752 55.7832C16.2441 55.5566 15.8516 55.248 15.5742 54.8574C15.3008 54.4668 15.1641 54.0234 15.1641 53.5273H16.2949C16.2949 54.043 16.4844 54.4512 16.8633 54.752C17.2461 55.0488 17.7559 55.1973 18.3926 55.1973C18.9863 55.1973 19.4414 55.0762 19.7578 54.834C20.0742 54.5918 20.2324 54.2617 20.2324 53.8438C20.2324 53.4258 20.0859 53.1035 19.793 52.877C19.5 52.6465 18.9688 52.4199 18.1992 52.1973ZM24.0176 56H22.8926V47.4688H24.0176V56ZM32.3789 54.8809C32.0898 55.2949 31.6855 55.6055 31.166 55.8125C30.6504 56.0156 30.0488 56.1172 29.3613 56.1172C28.666 56.1172 28.0488 55.9551 27.5098 55.6309C26.9707 55.3027 26.5527 54.8379 26.2559 54.2363C25.9629 53.6348 25.8125 52.9375 25.8047 52.1445V51.4004C25.8047 50.1152 26.1035 49.1191 26.7012 48.4121C27.3027 47.7051 28.1465 47.3516 29.2324 47.3516C30.123 47.3516 30.8398 47.5801 31.3828 48.0371C31.9258 48.4902 32.2578 49.1348 32.3789 49.9707H31.2539C31.043 48.8418 30.3711 48.2773 29.2383 48.2773C28.4844 48.2773 27.9121 48.543 27.5215 49.0742C27.1348 49.6016 26.9395 50.3672 26.9355 51.3711V52.0684C26.9355 53.0254 27.1543 53.7871 27.5918 54.3535C28.0293 54.916 28.6211 55.1973 29.3672 55.1973C29.7891 55.1973 30.1582 55.1504 30.4746 55.0566C30.791 54.9629 31.0527 54.8047 31.2598 54.582V52.666H29.2852V51.752H32.3789V54.8809ZM40.8164 56H39.6855L35.3906 49.4258V56H34.2598V47.4688H35.3906L39.6973 54.0723V47.4688H40.8164V56ZM47.6367 52.0566H43.9395V55.0801H48.2344V56H42.8145V47.4688H48.1758V48.3945H43.9395V51.1367H47.6367V52.0566ZM49.6348 56V47.4688H52.043C52.7852 47.4688 53.4414 47.6328 54.0117 47.9609C54.582 48.2891 55.0215 48.7559 55.3301 49.3613C55.6426 49.9668 55.8008 50.6621 55.8047 51.4473V51.9922C55.8047 52.7969 55.6484 53.502 55.3359 54.1074C55.0273 54.7129 54.584 55.1777 54.0059 55.502C53.4316 55.8262 52.7617 55.9922 51.9961 56H49.6348ZM50.7598 48.3945V55.0801H51.9434C52.8105 55.0801 53.4844 54.8105 53.9648 54.2715C54.4492 53.7324 54.6914 52.9648 54.6914 51.9688V51.4707C54.6914 50.502 54.4629 49.75 54.0059 49.2148C53.5527 48.6758 52.9082 48.4023 52.0723 48.3945H50.7598ZM60.4863 56V47.4688H63.2754C64.2012 47.4688 64.8965 47.6602 65.3613 48.043C65.8301 48.4258 66.0645 48.9922 66.0645 49.7422C66.0645 50.1406 65.9512 50.4941 65.7246 50.8027C65.498 51.1074 65.1895 51.3438 64.7988 51.5117C65.2598 51.6406 65.623 51.8867 65.8887 52.25C66.1582 52.6094 66.293 53.0391 66.293 53.5391C66.293 54.3047 66.0449 54.9062 65.5488 55.3438C65.0527 55.7812 64.3516 56 63.4453 56H60.4863ZM61.6113 52.0098V55.0801H63.4688C63.9922 55.0801 64.4043 54.9453 64.7051 54.6758C65.0098 54.4023 65.1621 54.0273 65.1621 53.5508C65.1621 52.5234 64.6035 52.0098 63.4863 52.0098H61.6113ZM61.6113 51.1074H63.3105C63.8027 51.1074 64.1953 50.9844 64.4883 50.7383C64.7852 50.4922 64.9336 50.1582 64.9336 49.7363C64.9336 49.2676 64.7969 48.9277 64.5234 48.7168C64.25 48.502 63.834 48.3945 63.2754 48.3945H61.6113V51.1074ZM70.2363 51.752L72.4629 47.4688H73.7402L70.7988 52.8184V56H69.6738V52.8184L66.7324 47.4688H68.0215L70.2363 51.752Z" fill="white"/>
<path d="M46.6626 60.0234H47.3223V63.5474C47.3223 64.0236 47.1787 64.3962 46.8916 64.665C46.6068 64.9339 46.2262 65.0684 45.75 65.0684C45.2555 65.0684 44.8704 64.9419 44.5947 64.689C44.319 64.436 44.1812 64.0817 44.1812 63.626H44.8374C44.8374 63.9108 44.9149 64.133 45.0698 64.2925C45.2271 64.452 45.4538 64.5317 45.75 64.5317C46.0212 64.5317 46.2399 64.4463 46.4062 64.2754C46.5749 64.1045 46.6603 63.8652 46.6626 63.5576V60.0234ZM48.1733 63.1167C48.1733 62.7544 48.244 62.4285 48.3853 62.1392C48.5288 61.8498 48.7271 61.6265 48.98 61.4692C49.2352 61.312 49.5257 61.2334 49.8516 61.2334C50.3551 61.2334 50.7619 61.4077 51.0718 61.7563C51.384 62.105 51.54 62.5687 51.54 63.1475V63.1919C51.54 63.5519 51.4705 63.8755 51.3315 64.1626C51.1948 64.4474 50.9977 64.6696 50.7402 64.8291C50.485 64.9886 50.1911 65.0684 49.8584 65.0684C49.3571 65.0684 48.9504 64.894 48.6382 64.5454C48.3283 64.1968 48.1733 63.7354 48.1733 63.1611V63.1167ZM48.8091 63.1919C48.8091 63.6021 48.9036 63.9313 49.0928 64.1797C49.2842 64.4281 49.5394 64.5522 49.8584 64.5522C50.1797 64.5522 50.4349 64.4269 50.624 64.1763C50.8132 63.9233 50.9077 63.5701 50.9077 63.1167C50.9077 62.7111 50.8109 62.383 50.6172 62.1323C50.4258 61.8794 50.1706 61.7529 49.8516 61.7529C49.5394 61.7529 49.2876 61.8771 49.0962 62.1255C48.9048 62.3739 48.8091 62.7293 48.8091 63.1919ZM54.6162 64.6343C54.3701 64.9237 54.009 65.0684 53.5327 65.0684C53.1385 65.0684 52.8377 64.9544 52.6304 64.7266C52.4253 64.4964 52.3216 64.1569 52.3193 63.708V61.3018H52.9517V63.6909C52.9517 64.2515 53.1795 64.5317 53.6353 64.5317C54.1183 64.5317 54.4396 64.3517 54.5991 63.9917V61.3018H55.2314V65H54.6299L54.6162 64.6343ZM56.0415 63.1201C56.0415 62.5527 56.1759 62.097 56.4448 61.7529C56.7137 61.4066 57.0658 61.2334 57.501 61.2334C57.9339 61.2334 58.2769 61.3815 58.5298 61.6777V59.75H59.1621V65H58.5811L58.5503 64.6035C58.2974 64.9134 57.9453 65.0684 57.4941 65.0684C57.0658 65.0684 56.716 64.8929 56.4448 64.542C56.1759 64.1911 56.0415 63.7331 56.0415 63.168V63.1201ZM56.6738 63.1919C56.6738 63.6112 56.7604 63.9393 56.9336 64.1763C57.1068 64.4132 57.346 64.5317 57.6514 64.5317C58.0524 64.5317 58.3452 64.3517 58.5298 63.9917V62.293C58.3407 61.9443 58.0501 61.77 57.6582 61.77C57.3483 61.77 57.1068 61.8896 56.9336 62.1289C56.7604 62.3682 56.6738 62.7225 56.6738 63.1919ZM61.9341 61.8691C61.8384 61.8532 61.7347 61.8452 61.623 61.8452C61.2083 61.8452 60.9269 62.0218 60.7788 62.375V65H60.1465V61.3018H60.7617L60.772 61.729C60.9793 61.3986 61.2733 61.2334 61.6538 61.2334C61.7769 61.2334 61.8703 61.2493 61.9341 61.2812V61.8691ZM63.2056 65H62.5732V61.3018H63.2056V65ZM62.522 60.3208C62.522 60.2183 62.5527 60.1317 62.6143 60.061C62.6781 59.9904 62.7715 59.9551 62.8945 59.9551C63.0176 59.9551 63.111 59.9904 63.1748 60.061C63.2386 60.1317 63.2705 60.2183 63.2705 60.3208C63.2705 60.4233 63.2386 60.5088 63.1748 60.5771C63.111 60.6455 63.0176 60.6797 62.8945 60.6797C62.7715 60.6797 62.6781 60.6455 62.6143 60.5771C62.5527 60.5088 62.522 60.4233 62.522 60.3208ZM65.7554 65.0684C65.2541 65.0684 64.8462 64.9043 64.5317 64.5762C64.2173 64.2458 64.0601 63.8049 64.0601 63.2534V63.1372C64.0601 62.7703 64.1296 62.4434 64.2686 62.1562C64.4098 61.8669 64.6058 61.6413 64.8564 61.4795C65.1094 61.3154 65.3828 61.2334 65.6768 61.2334C66.1576 61.2334 66.5312 61.3918 66.7979 61.7085C67.0645 62.0252 67.1978 62.4787 67.1978 63.0688V63.332H64.6924C64.7015 63.6966 64.8075 63.9917 65.0103 64.2173C65.2153 64.4406 65.4751 64.5522 65.7896 64.5522C66.0129 64.5522 66.202 64.5067 66.3569 64.4155C66.5119 64.3244 66.6475 64.2036 66.7637 64.0532L67.1499 64.354C66.84 64.8302 66.3752 65.0684 65.7554 65.0684ZM65.6768 61.7529C65.4215 61.7529 65.2074 61.8464 65.0342 62.0332C64.861 62.2178 64.7539 62.4775 64.7129 62.8125H66.5654V62.7646C66.5472 62.4434 66.4606 62.195 66.3057 62.0195C66.1507 61.8418 65.9411 61.7529 65.6768 61.7529ZM69.7202 61.8691C69.6245 61.8532 69.5208 61.8452 69.4092 61.8452C68.9945 61.8452 68.7131 62.0218 68.5649 62.375V65H67.9326V61.3018H68.5479L68.5581 61.729C68.7655 61.3986 69.0594 61.2334 69.4399 61.2334C69.563 61.2334 69.6564 61.2493 69.7202 61.2812V61.8691ZM73.4048 62.686L72.7964 63.3184V65H72.1401V60.0234H72.7964V62.4844L75.0078 60.0234H75.8008L73.8423 62.2212L75.9546 65H75.1685L73.4048 62.686ZM77.8755 65.0684C77.3742 65.0684 76.9663 64.9043 76.6519 64.5762C76.3374 64.2458 76.1802 63.8049 76.1802 63.2534V63.1372C76.1802 62.7703 76.2497 62.4434 76.3887 62.1562C76.5299 61.8669 76.7259 61.6413 76.9766 61.4795C77.2295 61.3154 77.5029 61.2334 77.7969 61.2334C78.2777 61.2334 78.6514 61.3918 78.918 61.7085C79.1846 62.0252 79.3179 62.4787 79.3179 63.0688V63.332H76.8125C76.8216 63.6966 76.9276 63.9917 77.1304 64.2173C77.3354 64.4406 77.5952 64.5522 77.9097 64.5522C78.133 64.5522 78.3221 64.5067 78.4771 64.4155C78.632 64.3244 78.7676 64.2036 78.8838 64.0532L79.27 64.354C78.9601 64.8302 78.4953 65.0684 77.8755 65.0684ZM77.7969 61.7529C77.5417 61.7529 77.3275 61.8464 77.1543 62.0332C76.9811 62.2178 76.874 62.4775 76.833 62.8125H78.6855V62.7646C78.6673 62.4434 78.5807 62.195 78.4258 62.0195C78.2708 61.8418 78.0612 61.7529 77.7969 61.7529ZM81.2251 64.1421L82.1411 61.3018H82.7871L81.4609 65H80.979L79.6392 61.3018H80.2852L81.2251 64.1421ZM84.0825 65H83.4502V61.3018H84.0825V65ZM83.3989 60.3208C83.3989 60.2183 83.4297 60.1317 83.4912 60.061C83.555 59.9904 83.6484 59.9551 83.7715 59.9551C83.8945 59.9551 83.988 59.9904 84.0518 60.061C84.1156 60.1317 84.1475 60.2183 84.1475 60.3208C84.1475 60.4233 84.1156 60.5088 84.0518 60.5771C83.988 60.6455 83.8945 60.6797 83.7715 60.6797C83.6484 60.6797 83.555 60.6455 83.4912 60.5771C83.4297 60.5088 83.3989 60.4233 83.3989 60.3208ZM85.6958 61.3018L85.7163 61.7666C85.9989 61.4111 86.368 61.2334 86.8237 61.2334C87.6053 61.2334 87.9995 61.6743 88.0063 62.5562V65H87.374V62.5527C87.3717 62.2861 87.3102 62.089 87.1895 61.9614C87.071 61.8338 86.8853 61.77 86.6323 61.77C86.4272 61.77 86.2472 61.8247 86.0923 61.9341C85.9373 62.0435 85.8166 62.187 85.73 62.3647V65H85.0977V61.3018H85.6958Z" fill="#BF9B4F"/>
</svg>
